HIERARCHY
ROOT Hips
{
 OFFSET 0.000000 0.000000 0.000000
 CHANNELS 6 Xposition Yposition Zposition Yrotation Xrotation Zrotation
 JOINT Chest
 {
  OFFSET 0.000000 9.581000 -0.001100
  CHANNELS 3 Yrotation Xrotation Zrotation
  JOINT Chest2
  {
   OFFSET 0.000000 9.561100 0.002200
   CHANNELS 3 Yrotation Xrotation Zrotation
   JOINT Chest3
   {
    OFFSET 0.000000 9.521100 0.000000
    CHANNELS 3 Yrotation Xrotation Zrotation
    JOINT Chest4
    {
     OFFSET 0.000000 9.511400 0.000000
     CHANNELS 3 Yrotation Xrotation Zrotation
     JOINT Neck
     {
      OFFSET 0.000000 14.375100 0.000000
      CHANNELS 3 Yrotation Xrotation Zrotation
      JOINT Head
      {
       OFFSET 0.000000 8.901200 0.004600
       CHANNELS 3 Yrotation Xrotation Zrotation
       End Site
       {
        OFFSET 0.000000 16.962200 0.002400
       }
      }
     }
     JOINT RightCollar
     {
      OFFSET -2.920100 9.518800 0.000000
      CHANNELS 3 Yrotation Xrotation Zrotation
      JOINT RightShoulder
      {
       OFFSET -13.664500 0.000000 0.000000
       CHANNELS 3 Yrotation Xrotation Zrotation
       JOINT RightElbow
       {
        OFFSET 0.000000 -29.999200 0.000000
        CHANNELS 3 Yrotation Xrotation Zrotation
        JOINT RightWrist
        {
         OFFSET 0.000000 -24.253600 0.000000
         CHANNELS 3 Yrotation Xrotation Zrotation
         End Site
         {
          OFFSET 0.000000 -17.918900 0.000000
         }
        }
       }
      }
     }
     JOINT LeftCollar
     {
      OFFSET 2.920100 9.518800 0.000000
      CHANNELS 3 Yrotation Xrotation Zrotation
      JOINT LeftShoulder
      {
       OFFSET 13.664500 0.000000 0.000000
       CHANNELS 3 Yrotation Xrotation Zrotation
       JOINT LeftElbow
       {
        OFFSET 0.000000 -29.999200 0.000000
        CHANNELS 3 Yrotation Xrotation Zrotation
        JOINT LeftWrist
        {
         OFFSET 0.000000 -24.253600 0.000000
         CHANNELS 3 Yrotation Xrotation Zrotation
         End Site
         {
          OFFSET 0.000000 -17.918900 0.000000
         }
        }
       }
      }
     }
    }
   }
  }
 }
 JOINT RightHip
 {
  OFFSET -7.797300 0.005300 0.000500
  CHANNELS 3 Yrotation Xrotation Zrotation
  JOINT RightKnee
  {
   OFFSET 0.000000 -40.663400 -0.000500
   CHANNELS 3 Yrotation Xrotation Zrotation
   JOINT RightAnkle
   {
    OFFSET 0.000000 -39.523700 -0.000900
    CHANNELS 3 Yrotation Xrotation Zrotation
    JOINT RightToe
    {
     OFFSET 0.000000 -6.418000 14.485300
     CHANNELS 3 Yrotation Xrotation Zrotation
     End Site
     {
      OFFSET 0.000000 -1.465200 6.326400
     }
    }
   }
  }
 }
 JOINT LeftHip
 {
  OFFSET 7.797300 0.005300 0.000500
  CHANNELS 3 Yrotation Xrotation Zrotation
  JOINT LeftKnee
  {
   OFFSET 0.000000 -40.663400 -0.000500
   CHANNELS 3 Yrotation Xrotation Zrotation
   JOINT LeftAnkle
   {
    OFFSET 0.000000 -39.523700 -0.000900
    CHANNELS 3 Yrotation Xrotation Zrotation
    JOINT LeftToe
    {
     OFFSET 0.000000 -6.418000 14.485300
     CHANNELS 3 Yrotation Xrotation Zrotation
     End Site
     {
      OFFSET 0.000000 -1.465200 6.326400
     }
    }
   }
  }
 }
}
MOTION
Frames: 14
Frame Time: 0.008333
0.000000 86.422400 0.000000 0.000000 -5.767877 0.000000 0.000000 11.653817 0.000000 0.000000 -5.885947 0.000000 0.000000 -0.000000 0.000000 0.000000 -0.000000 0.000000 0.000000 12.528835 0.000000 0.000000 0.711642 0.000000 0.000000 -0.000000 0.000000 0.000000 0.000000 -90.000000 0.000000 -2.309062 0.000000 0.000000 2.309062 0.000000 0.000000 -0.000000 0.000000 0.000000 -0.000000 90.000000 0.000000 -2.309062 0.000000 0.000000 2.309062 0.000000 0.000000 8.520406 0.000000 0.000000 1.905762 0.000000 -0.000000 -4.658285 0.000000 0.000000 -0.000000 0.000000 0.000000 8.520406 0.000000 0.000000 1.905762 0.000000 -0.000000 -4.658285 0.000000 0.000000 -0.000000 0.000000
-9.162892 126.448169 1.726151 170.234631 -29.017970 -2.917974 2.148641 20.928214 1.651003 0.226951 2.750108 0.166393 0.413971 4.477551 0.282245 1.755042 17.891595 1.347994 4.235941 17.340540 -2.664426 5.151116 -7.325747 -3.828584 -0.959230 -5.151826 -0.640571 3.579337 -10.580140 -5.201581 71.878188 -64.227063 -49.825599 4.811666 10.109261 -27.742774 -9.843714 -4.652364 1.514943 -3.568671 -14.943889 6.387848 -55.041367 -64.851050 42.867340 -25.002428 8.853826 17.635114 -4.178201 -53.618090 7.337175 -123.605976 84.459286 -125.685102 11.503223 -26.767610 2.967658 -0.002578 -0.006977 -0.001142 -3.916899 -46.224012 -3.606652 47.980846 83.157165 41.383390 1.850909 -10.116390 5.444077 -0.001611 -0.001650 -0.000714
-9.163264 126.448689 1.726260 170.243704 -29.023098 -2.917777 2.153987 20.931085 1.652919 0.242507 2.745364 0.168239 0.400601 4.483039 0.280956 1.757283 17.887276 1.347629 4.227765 17.334531 -2.663132 5.141866 -7.332886 -3.825218 -0.960389 -5.168175 -0.634300 3.560682 -10.564810 -5.206253 71.862471 -64.232188 -49.805777 4.807725 10.112799 -27.745027 -9.849675 -4.654450 1.517871 -3.579258 -14.935940 6.383896 -55.021395 -64.846387 42.853484 -24.977756 8.840788 17.635114 -4.175856 -53.616029 7.319933 -123.612317 84.465055 -125.690701 11.537882 -26.751021 2.959816 0.000320 -0.007279 0.000142 -3.919173 -46.217976 -3.612596 47.962506 83.156543 41.363521 1.849850 -10.113924 5.445102 -0.000775 -0.002608 -0.000343
-9.164519 126.449036 1.726622 170.253188 -29.026269 -2.912664 2.153182 20.934429 1.647320 0.243247 2.745641 0.168015 0.406628 4.482954 0.279910 1.764020 17.887329 1.351891 4.215446 17.325285 -2.662277 5.127853 -7.343689 -3.821163 -0.980407 -5.171777 -0.629043 3.558915 -10.566846 -5.209410 71.851123 -64.236020 -49.795140 4.806849 10.116798 -27.742709 -9.866534 -4.660310 1.522935 -3.585327 -14.931219 6.376581 -55.017645 -64.839749 42.853544 -24.863769 8.826315 17.647253 -4.173868 -53.615115 7.304469 -123.609719 84.466262 -125.686378 11.526938 -26.735867 2.956312 -0.002962 -0.006245 -0.001312 -3.918176 -46.211560 -3.623757 47.915835 83.154874 41.313303 1.847796 -10.110491 5.446134 0.000974 -0.001433 0.000432
-9.164579 126.449497 1.727200 170.260737 -29.030485 -2.914024 2.149644 20.939001 1.646575 0.243488 2.745726 0.167882 0.411829 4.482618 0.278958 1.777641 17.889145 1.349021 4.205493 17.314673 -2.658438 5.115925 -7.356102 -3.814442 -0.990597 -5.182133 -0.616689 3.548092 -10.567643 -5.209727 71.841264 -64.230487 -49.781074 4.798362 10.120460 -27.743923 -9.885546 -4.663838 1.534603 -3.590415 -14.927259 6.371072 -54.983097 -64.829261 42.833219 -24.760465 8.791240 17.660671 -4.179052 -53.612349 7.299295 -123.605180 84.466391 -125.684684 11.559081 -26.715915 2.947286 0.000427 -0.002214 0.000189 -3.926957 -46.205169 -3.621755 47.852926 83.157150 41.242952 1.850742 -10.104937 5.451481 0.000779 -0.000165 0.000345
-9.165091 126.449689 1.728216 170.266614 -29.032109 -2.912811 2.160340 20.938498 1.646870 0.244723 2.745860 0.167683 0.404257 4.483654 0.280073 1.794514 17.888190 1.345965 4.194085 17.306801 -2.652630 5.102002 -7.365409 -3.805369 -1.004390 -5.190255 -0.602381 3.537836 -10.569788 -5.205156 71.813450 -64.222705 -49.746356 4.796050 10.120829 -27.751037 -9.908286 -4.664739 1.547550 -3.599353 -14.924735 6.362757 -54.880446 -64.800234 42.758971 -24.685580 8.725070 17.678278 -4.192289 -53.609500 7.305768 -123.589733 84.464603 -125.678989 11.559890 -26.714662 2.947312 -0.000101 -0.000813 -0.000045 -3.928329 -46.203188 -3.623264 47.858336 83.151782 41.235416 1.845929 -10.099879 5.462981 -0.001779 -0.002168 -0.000788
-9.165709 126.449944 1.729119 170.272330 -29.035417 -2.911420 2.167643 20.937418 1.647748 0.245550 2.745793 0.167623 0.418747 4.477006 0.279186 1.804848 17.885943 1.348513 4.167404 17.308477 -2.645036 5.084123 -7.389119 -3.806382 -1.009759 -5.195735 -0.595429 3.508642 -10.554239 -5.196694 71.800400 -64.217028 -49.731660 4.795716 10.118759 -27.757145 -9.934667 -4.655623 1.555873 -3.622082 -14.922183 6.355254 -54.863374 -64.784703 42.756190 -24.599831 8.701663 17.694878 -4.202236 -53.605613 7.309604 -123.629979 84.463255 -125.727925 11.552075 -26.717155 2.949258 -0.002484 0.000237 -0.001101 -3.928879 -46.198116 -3.628483 47.849509 83.146387 41.221236 1.843106 -10.097216 5.466258 -0.001409 -0.002783 -0.000624
-9.165615 126.450160 1.730304 170.279641 -29.038935 -2.915929 2.174176 20.936721 1.652149 0.246270 2.745184 0.167906 0.417395 4.472854 0.280614 1.808634 17.884255 1.350543 4.160875 17.306779 -2.646457 5.072807 -7.393206 -3.802773 -1.016118 -5.190066 -0.595626 3.501853 -10.550499 -5.192086 71.789092 -64.219407 -49.708981 4.797843 10.120633 -27.771074 -9.938694 -4.649766 1.553985 -3.634884 -14.917715 6.357582 -54.813145 -64.764020 42.723364 -24.539710 8.662615 17.710337 -4.216183 -53.600634 7.326856 -123.616816 84.457504 -125.726676 11.559579 -26.727532 2.951135 0.002852 -0.000810 0.001263 -3.930943 -46.190100 -3.628535 47.791929 83.143423 41.163308 1.840864 -10.097134 5.468827 -0.000191 -0.001071 -0.000085
-9.166270 126.450521 1.730964 170.286270 -29.046284 -2.915522 2.184233 20.925918 1.655869 0.241254 2.754386 0.166894 0.411950 4.473969 0.281412 1.811541 17.879386 1.354490 4.157348 17.306691 -2.651462 5.063406 -7.391363 -3.799444 -1.016059 -5.182364 -0.600023 3.497663 -10.551555 -5.187839 71.774436 -64.217057 -49.694597 4.801401 10.119609 -27.765923 -9.936225 -4.645420 1.556794 -3.649289 -14.912109 6.348996 -54.786537 -64.740908 42.713440 -24.513221 8.637628 17.715004 -4.213625 -53.593824 7.321326 -123.655092 84.457473 -125.768972 11.561857 -26.737687 2.953645 0.003270 -0.001879 0.001449 -3.919885 -46.178713 -3.643690 47.734098 83.138379 41.110824 1.839907 -10.094790 5.472357 -0.000020 -0.000005 -0.000009
-9.166546 126.451446 1.730624 170.299358 -29.061587 -2.919361 2.177890 20.931213 1.658162 0.241429 2.755278 0.165040 0.407965 4.480906 0.281312 1.814853 17.869830 1.361692 4.151171 17.306312 -2.659804 5.061808 -7.382026 -3.796578 -1.010150 -5.180973 -0.606357 3.501276 -10.547260 -5.188881 71.741377 -64.217979 -49.666190 4.805033 10.123462 -27.769507 -9.924389 -4.645673 1.558639 -3.661435 -14.915551 6.334294 -54.751659 -64.704335 42.682030 -24.440688 8.609758 17.743635 -4.215336 -53.577939 7.315043 -123.689723 84.458481 -125.806236 11.557203 -26.747389 2.956707 0.001983 -0.003854 0.000879 -3.911477 -46.159402 -3.661425 47.686207 83.134012 41.069822 1.840410 -10.091844 5.479334 -0.001124 0.001183 -0.000498
-9.166722 126.451598 1.731609 170.303276 -29.068995 -2.920001 2.176834 20.930963 1.660259 0.245350 2.751042 0.167044 0.407242 4.480307 0.282528 1.809094 17.877022 1.361561 4.152313 17.291214 -2.660447 5.058352 -7.373755 -3.802101 -0.982822 -5.194776 -0.614556 3.510423 -10.549979 -5.194938 71.660054 -64.218017 -49.594053 4.805056 10.131936 -27.786590 -9.912899 -4.652041 1.562952 -3.669880 -14.909472 6.323516 -54.731354 -64.697364 42.661450 -24.357694 8.583981 17.797526 -4.191456 -53.575158 7.299464 -123.718777 84.454836 -125.825353 11.541425 -26.751605 2.962458 0.001475 -0.006253 0.000654 -3.902308 -46.152625 -3.674332 47.689286 83.131488 41.077947 1.841138 -10.088244 5.486296 -0.002230 0.000580 -0.000988
-9.166397 126.451395 1.733237 170.304717 -29.072590 -2.921916 2.176627 20.932128 1.662537 0.246296 2.743918 0.169730 0.406894 4.480862 0.283597 1.807209 17.881873 1.361559 4.151675 17.284393 -2.661731 5.053128 -7.384664 -3.808132 -0.973210 -5.201883 -0.623188 3.508822 -10.545260 -5.192718 71.638678 -64.216345 -49.576904 4.800812 10.132708 -27.787215 -9.908367 -4.653977 1.563077 -3.671347 -14.909280 6.318807 -54.703921 -64.693827 42.633828 -24.351832 8.574135 17.805472 -4.186630 -53.573103 7.296854 -123.727756 84.454843 -125.831667 11.534719 -26.752302 2.964798 0.000852 -0.006523 0.000377 -3.901838 -46.150699 -3.672568 47.683750 83.133900 41.072265 1.839809 -10.085751 5.491157 -0.000173 0.000078 -0.000077
-9.166617 126.451645 1.733649 170.309441 -29.082505 -2.919666 2.176125 20.934404 1.664961 0.251235 2.741698 0.174121 0.405475 4.483620 0.282694 1.806247 17.885090 1.362492 4.142192 17.281484 -2.665784 5.050381 -7.380542 -3.808153 -0.974700 -5.212866 -0.634648 3.506760 -10.537830 -5.187610 71.609643 -64.218091 -49.545629 4.799406 10.135148 -27.792752 -9.915668 -4.654917 1.562092 -3.663154 -14.917652 6.309868 -54.687707 -64.686051 42.606729 -24.308412 8.563711 17.822071 -4.175784 -53.564269 7.283400 -123.735674 84.460889 -125.842468 11.531936 -26.753971 2.970445 -0.000618 -0.007760 -0.000274 -3.900727 -46.141996 -3.681214 47.702033 83.130969 41.089040 1.840499 -10.082600 5.493830 0.000565 -0.000364 0.000250
-9.166865 126.451534 1.734641 170.310271 -29.087190 -2.914796 2.184886 20.933221 1.670567 0.248594 2.745852 0.170164 0.406654 4.483597 0.283303 1.805640 17.886922 1.360088 4.138841 17.273877 -2.662001 5.041939 -7.387474 -3.805745 -0.984708 -5.225841 -0.637549 3.527198 -10.539491 -5.190363 71.531175 -64.225416 -49.462994 4.806395 10.134818 -27.814130 -9.918771 -4.661750 1.568897 -3.664363 -14.925987 6.303539 -54.606465 -64.680997 42.523937 -24.254584 8.548447 17.848619 -4.151703 -53.560105 7.260268 -123.667125 84.463429 -125.765834 11.530991 -26.746237 2.969742 -0.002195 -0.005857 -0.000972 -3.901534 -46.138519 -3.682297 47.740817 83.125482 41.118434 1.833135 -10.078028 5.498940 0.001244 -0.000719 0.000551
